<?xml version="1.0" encoding="UTF-8"?><svg id="Layer_2" xmlns="http://www.w3.org/2000/svg" width="84.42966" height="118.60357" viewBox="0 0 84.42966 118.60357"><defs><style>.cls-1{fill:#aaafb5;}.cls-1,.cls-2{stroke-width:0px;}.cls-2{fill:#e9ecec;}</style></defs><g id="Layer_1-2"><path class="cls-2" d="M84.42966,24.12276v86.43989c0,3.33698-2.68969,6.03069-6.03069,6.03069H6.03069c-3.33698,0-6.03069-2.69371-6.03069-6.03069V6.03069C0,2.68969,2.69371,0,6.03069,0h54.27621l24.12276,24.12276Z"/><path class="cls-1" d="M0,90.46035v20.1023c0,4.45467,3.42324,8.04092,7.67542,8.04092h69.07882c4.25218,0,7.67542-3.58625,7.67542-8.04092v-20.1023H0Z"/><path class="cls-1" d="M84.42966,24.12276h-18.09207c-3.33698,0-6.03069-2.69371-6.03069-6.03069V0"/><path class="cls-1" d="M8.09384,31.13825c-1.11022.05662-1.96433,1.00253-1.90771,2.11275.05662,1.11022,1.00253,1.96433,2.11275,1.90771h20.07014c1.11022,0,2.01023-.90001,2.01023-2.01023s-.90001-2.01023-2.01023-2.01023H8.29888c-.06697-.00335-.13406-.00335-.20102,0h-.00402ZM8.09384,39.17917c-1.11022.05662-1.96433,1.00253-1.90771,2.11275.05662,1.11022,1.00253,1.96433,2.11275,1.90771h36.18415c1.11022,0,2.01023-.90001,2.01023-2.01023s-.90001-2.01023-2.01023-2.01023H8.29888c-.06697-.00335-.13406-.00335-.20102,0h-.00402ZM8.09384,51.24055c-1.11022.05662-1.96433,1.00253-1.90771,2.11275.05662,1.11022,1.00253,1.96433,2.11275,1.90771h16.08184c1.11022,0,2.01023-.90001,2.01023-2.01023s-.90001-2.01023-2.01023-2.01023H8.29888c-.06697-.00335-.13406-.00335-.20102,0h-.00402ZM32.2166,51.24055c-1.11022.05662-1.96433,1.00253-1.90771,2.11275.05662,1.11022,1.00253,1.96433,2.11275,1.90771h4.02046c1.11022,0,2.01023-.90001,2.01023-2.01023s-.90001-2.01023-2.01023-2.01023h-4.02046c-.06696-.00335-.13406-.00335-.20102,0h-.00402ZM44.27798,51.24055c-1.11022.05662-1.96433,1.00253-1.90771,2.11275.05662,1.11022,1.00254,1.96433,2.11276,1.90771h32.13152c1.11022,0,2.01023-.90001,2.01023-2.01023s-.90001-2.01023-2.01023-2.01023h-32.13152c-.06697-.00335-.13405-.00335-.20102,0h-.00403ZM8.09384,59.28147c-1.11022.05662-1.96433,1.00253-1.90771,2.11275.05662,1.11022,1.00253,1.96433,2.11275,1.90771h24.12276c1.11022,0,2.01023-.90001,2.01023-2.01023s-.90001-2.01023-2.01023-2.01023H8.29888c-.06697-.00335-.13406-.00335-.20102,0h-.00402ZM40.25752,59.28147c-1.11022.05662-1.96433,1.00253-1.90771,2.11275.05662,1.11022,1.00253,1.96433,2.11275,1.90771h4.02046c1.11022,0,2.01023-.90001,2.01023-2.01023s-.90001-2.01023-2.01023-2.01023h-4.02046c-.06696-.00335-.13406-.00335-.20102,0h-.00402ZM52.3189,59.28147c-1.11022.05662-1.96433,1.00253-1.90771,2.11275.05662,1.11022,1.00254,1.96433,2.11276,1.90771h24.0906c1.11022,0,2.01023-.90001,2.01023-2.01023s-.90001-2.01023-2.01023-2.01023h-24.0906c-.06697-.00335-.13405-.00335-.20102,0h-.00403ZM8.09384,67.32239c-1.11022.05662-1.96433,1.00253-1.90771,2.11275.05662,1.11022,1.00253,1.96433,2.11275,1.90771h32.16368c1.11022,0,2.01023-.90001,2.01023-2.01023s-.90001-2.01023-2.01023-2.01023H8.29888c-.06697-.00335-.13406-.00335-.20102,0h-.00402ZM48.29844,67.32239c-1.11022.05662-1.96433,1.00253-1.90771,2.11275.05662,1.11022,1.00254,1.96433,2.11276,1.90771h4.02046c1.11022,0,2.01023-.90001,2.01023-2.01023s-.90001-2.01023-2.01023-2.01023h-4.02046c-.06697-.00335-.13405-.00335-.20102,0h-.00403ZM60.35982,67.32239c-1.11022.05662-1.96433,1.00253-1.90771,2.11275.05662,1.11022,1.00254,1.96433,2.11276,1.90771h16.04968c1.11022,0,2.01023-.90001,2.01023-2.01023s-.90001-2.01023-2.01023-2.01023h-16.04968c-.06697-.00335-.13405-.00335-.20102,0h-.00403ZM8.09384,75.36332c-1.11022.05662-1.96433,1.00253-1.90771,2.11275.05662,1.11022,1.00253,1.96433,2.11275,1.90771h16.08184c1.11022,0,2.01023-.90001,2.01023-2.01023s-.90001-2.01023-2.01023-2.01023H8.29888c-.06697-.00335-.13406-.00335-.20102,0h-.00402ZM32.2166,75.36332c-1.11022.05662-1.96433,1.00253-1.90771,2.11275.05662,1.11022,1.00253,1.96433,2.11275,1.90771h4.02046c1.11022,0,2.01023-.90001,2.01023-2.01023s-.90001-2.01023-2.01023-2.01023h-4.02046c-.06696-.00335-.13406-.00335-.20102,0h-.00402ZM44.27798,75.36332c-1.11022.05662-1.96433,1.00253-1.90771,2.11275.05662,1.11022,1.00254,1.96433,2.11276,1.90771h32.13151c1.11022,0,2.01023-.90001,2.01023-2.01023s-.90001-2.01023-2.01023-2.01023h-32.13152c-.06697-.00335-.13405-.00335-.20102,0h-.00402Z"/></g></svg>