<?xml version="1.0" encoding="UTF-8"?><svg id="Layer_2" xmlns="http://www.w3.org/2000/svg" width="84.42966" height="118.60357" viewBox="0 0 84.42966 118.60357"><defs><style>.cls-1{fill:#2c4355;}.cls-1,.cls-2{stroke-width:0px;}.cls-2,.cls-3{fill:#e9ecec;}.cls-3{font-family:Inter-Bold, Inter;font-size:20.26312px;font-variation-settings:'wght' 700, 'slnt' 0;font-weight:700;}</style></defs><g id="Layer_1-2"><path class="cls-2" d="M84.42966,24.12276v86.43989c0,3.33698-2.68969,6.03069-6.03069,6.03069H6.03069c-3.33698,0-6.03069-2.69371-6.03069-6.03069V6.03069C0,2.68969,2.69371,0,6.03069,0h54.27621l24.12276,24.12276Z"/><path class="cls-1" d="M0,90.46035v20.1023c0,4.45467,3.42275,8.04092,7.67433,8.04092h69.06895c4.25158,0,7.67433-3.58625,7.67433-8.04092v-20.1023H0Z"/><path class="cls-1" d="M84.41761,24.12276h-18.09207c-3.341,0-6.03069-2.69371-6.03069-6.03069V0"/><path class="cls-1" d="M42.2088,24.10668c-15.51897,0-28.14322,12.62425-28.14322,28.14322s12.62425,28.14322,28.14322,28.14322,28.14322-12.62424,28.14322-28.14322-12.62424-28.14322-28.14322-28.14322h0ZM42.2088,28.12714c13.34793,0,24.12276,10.77483,24.12276,24.12276s-10.77483,24.12276-24.12276,24.12276-24.12276-10.77483-24.12276-24.12276,10.77483-24.12276,24.12276-24.12276h0ZM34.20005,36.0193v.00804c-1.11008-.01776-2.02437.86773-2.04214,1.97781-.00017.0108-.00026.02161-.00026.03242v28.4327c-.00153,1.11022.89723,2.01147,2.00745,2.01301.41888.00058.82748-.12971,1.16871-.37266l20.06611-14.22037c.90594-.64177,1.1201-1.89643.47833-2.80237-.13128-.18532-.29302-.34705-.47833-.47833l-20.07014-14.21233c-.32975-.23723-.72363-.36899-1.12975-.37792h0ZM36.17811,41.92536l14.58221,10.32454-14.58221,10.33258v-20.65713h0Z"/><text class="cls-3" transform="translate(18.15616 111.61048)"><tspan x="0" y="0">MOV</tspan></text></g></svg>