<svg width="72" height="75" viewBox="0 0 72 75" fill="none" xmlns="http://www.w3.org/2000/svg">
<path d="M12.7435 13.4739C15.0442 15.3424 15.9077 15.2005 20.2315 14.9107L60.9866 12.4656C61.8501 12.4656 61.1316 11.6023 60.8448 11.4605L54.0723 6.56722C52.777 5.56206 51.0469 4.40889 47.7346 4.69564L8.27478 7.57547C6.83763 7.7173 6.54774 8.4388 7.12136 9.0123L12.7435 13.4739ZM15.1891 22.9705V65.8411C15.1891 68.1443 16.3395 69.0077 18.9331 68.8628L63.7221 66.2728C66.3158 66.1309 66.6057 64.5461 66.6057 62.6745V20.0907C66.6057 18.2222 65.8871 17.2139 64.2988 17.3558L17.4929 20.0907C15.7658 20.2356 15.1891 21.0989 15.1891 22.9674V22.9705ZM59.4045 25.2676C59.6913 26.5626 59.4045 27.8576 58.1092 28.0056L55.9504 28.4373V60.0845C54.0754 61.0928 52.3483 61.6694 50.9081 61.6694C48.6012 61.6694 48.0245 60.9479 46.2975 58.7926L32.182 36.6358V58.0711L36.6476 59.0824C36.6476 59.0824 36.6476 61.6724 33.0455 61.6724L23.1089 62.2459C22.822 61.6724 23.1089 60.2325 24.1173 59.9458L26.7079 59.2274V30.8823L23.115 30.5925C22.8251 29.2975 23.5468 27.429 25.5606 27.2841L36.219 26.5657L50.9112 49.0092V29.1526L47.1641 28.724C46.8773 27.1392 48.0276 25.9891 49.4679 25.8473L59.4045 25.2676ZM4.96256 3.69048L46.0107 0.668818C51.05 0.237152 52.3483 0.523902 55.5156 2.82715L68.6195 12.034C70.7783 13.6157 71.5 14.0474 71.5 15.774V66.2728C71.5 69.4363 70.3497 71.3109 66.3189 71.5946L18.6463 74.4744C15.624 74.6193 14.1807 74.1877 12.5955 72.1712L2.94562 59.6529C1.21857 57.3496 0.5 55.626 0.5 53.6095V8.72247C0.5 6.13556 1.65342 3.97414 4.96256 3.69048Z" fill="#2F3437"/>
</svg>
