<?xml version="1.0" encoding="UTF-8"?><svg id="Layer_2" xmlns="http://www.w3.org/2000/svg" width="84.42966" height="119.29265" viewBox="0 0 84.42966 119.29265"><defs><style>.cls-1{fill:#4ebfeb;}.cls-1,.cls-2,.cls-3{stroke-width:0px;}.cls-2{fill:#f15743;}.cls-3,.cls-4{fill:#e9ecec;}.cls-4{font-family:Inter-Bold, Inter;font-size:20.26312px;font-variation-settings:'wght' 700, 'slnt' 0;font-weight:700;}</style></defs><g id="Layer_1-2"><path class="cls-3" d="M84.42966,24.12276v86.43989c0,3.33698-2.68969,6.03069-6.03069,6.03069H6.03069c-3.33698,0-6.03069-2.69371-6.03069-6.03069V6.03069C0,2.68969,2.69371,0,6.03069,0h54.27621l24.12276,24.12276Z"/><path class="cls-2" d="M0,90.46035v20.1023c0,4.45467,3.42324,8.04092,7.67542,8.04092h69.07882c4.25218,0,7.67542-3.58625,7.67542-8.04092v-20.1023H0Z"/><path class="cls-1" d="M84.42966,24.12276h-18.09207c-3.33698,0-6.03069-2.69371-6.03069-6.03069V0"/><path class="cls-2" d="M8.29301,25.11182c-1.11022,0-2.01023.90001-2.01023,2.01023v16.08184c0,1.11022.90001,2.01023,2.01023,2.01023h20.1023c1.11022,0,2.01023-.90001,2.01023-2.01023v-16.08184c0-1.11022-.90001-2.01023-2.01023-2.01023H8.29301ZM36.26335,25.11182c-1.11022.05551-1.96523,1.00052-1.90972,2.11074.05551,1.11022,1.00052,1.96523,2.11074,1.90972h16.0537c1.11022,0,2.01023-.90001,2.01023-2.01023s-.90001-2.01023-2.01023-2.01023h-16.04968c-.0683-.00349-.13674-.00349-.20504,0ZM10.30324,29.13228h16.08184v12.06138H10.30324v-12.06138ZM36.26335,33.15274c-1.11022.05551-1.96523,1.00052-1.90972,2.11074.05551,1.11022,1.00052,1.96523,2.11074,1.90972h19.99923c1.11022,0,2.01023-.90001,2.01023-2.01023s-.90001-2.01023-2.01023-2.01023h-19.99522c-.0683-.00349-.13674-.00349-.20504,0ZM36.26335,41.19367c-1.11022.05551-1.96523,1.00052-1.90972,2.11074.05551,1.11022,1.00052,1.96523,2.11074,1.90972h31.09296c1.11022,0,2.01023-.90001,2.01023-2.01023s-.90001-2.01023-2.01023-2.01023h-31.08894c-.0683-.00349-.13674-.00349-.20504,0ZM8.12013,49.23459c-1.11022.05551-1.96523,1.00052-1.90972,2.11074.05551,1.11022,1.00052,1.96523,2.11074,1.90972h16.08184c1.11022,0,2.01023-.90001,2.01023-2.01023s-.90001-2.01023-2.01023-2.01023H8.32116c-.06697-.00335-.13406-.00335-.20102,0ZM32.24289,49.23459c-1.11022.05551-1.96523,1.00052-1.90972,2.11074.05551,1.11022,1.00052,1.96523,2.11074,1.90972h4.02046c1.11022,0,2.01023-.90001,2.01023-2.01023s-.90001-2.01023-2.01023-2.01023h-4.02046c-.06696-.00335-.13406-.00335-.20102,0ZM44.30428,49.23459c-1.11022.05551-1.96523,1.00052-1.90972,2.11074s1.00052,1.96523,2.11074,1.90972h32.13554c1.11022,0,2.01023-.90001,2.01023-2.01023s-.90001-2.01023-2.01023-2.01023h-32.13152c-.0683-.00349-.13674-.00349-.20505,0h0ZM8.12014,57.27551c-1.11022.05551-1.96523,1.00052-1.90972,2.11074.05551,1.11022,1.00052,1.96523,2.11074,1.90972h24.12276c1.11022,0,2.01023-.90001,2.01023-2.01023s-.90001-2.01023-2.01023-2.01023H8.32116c-.06697-.00335-.13406-.00335-.20102,0ZM40.28382,57.27551c-1.11022.05551-1.96523,1.00052-1.90972,2.11074.05551,1.11022,1.00052,1.96523,2.11074,1.90972h4.02046c1.11022,0,2.01023-.90001,2.01023-2.01023s-.90001-2.01023-2.01023-2.01023h-4.02046c-.06696-.00335-.13406-.00335-.20102,0h0ZM52.3452,57.27551c-1.11022.05551-1.96523,1.00052-1.90972,2.11074s1.00052,1.96523,2.11074,1.90972h24.09462c1.11022,0,2.01023-.90001,2.01023-2.01023s-.90001-2.01023-2.01023-2.01023h-24.0906c-.0683-.00349-.13674-.00349-.20505,0h0ZM8.12014,65.31643c-1.11022.05551-1.96523,1.00052-1.90972,2.11074.05551,1.11022,1.00052,1.96523,2.11074,1.90972h32.16368c1.11022,0,2.01023-.90001,2.01023-2.01023s-.90001-2.01023-2.01023-2.01023H8.32116c-.06697-.00335-.13406-.00335-.20102,0ZM48.32474,65.31643c-1.11022.05551-1.96523,1.00052-1.90972,2.11074s1.00052,1.96523,2.11074,1.90972h4.02046c1.11022,0,2.01023-.90001,2.01023-2.01023s-.90001-2.01023-2.01023-2.01023h-4.02046c-.06697-.00335-.13405-.00335-.20102,0ZM60.38612,65.31643c-1.11022.05551-1.96523,1.00052-1.90972,2.11074s1.00052,1.96523,2.11074,1.90972h16.0537c1.11022,0,2.01023-.90001,2.01023-2.01023s-.90001-2.01023-2.01023-2.01023h-16.04968c-.0683-.00349-.13674-.00349-.20505,0h0ZM8.12014,73.35735c-1.11022.05551-1.96523,1.00052-1.90972,2.11074.05551,1.11022,1.00052,1.96523,2.11074,1.90972h16.08184c1.11022,0,2.01023-.90001,2.01023-2.01023s-.90001-2.01023-2.01023-2.01023H8.32116c-.06697-.00335-.13406-.00335-.20102,0ZM32.2429,73.35735c-1.11022.05551-1.96523,1.00052-1.90972,2.11074.05551,1.11022,1.00052,1.96523,2.11074,1.90972h4.02046c1.11022,0,2.01023-.90001,2.01023-2.01023s-.90001-2.01023-2.01023-2.01023h-4.02046c-.06696-.00335-.13406-.00335-.20102,0ZM44.30428,73.35735c-1.11022.05551-1.96523,1.00052-1.90972,2.11074s1.00052,1.96523,2.11074,1.90972h32.13554c1.11022,0,2.01023-.90001,2.01023-2.01023s-.90001-2.01023-2.01023-2.01023h-32.13152c-.0683-.00349-.13674-.00349-.20505,0h0Z"/><path class="cls-2" d="M84.42966,24.12276h-18.09207c-3.33698,0-6.03069-2.69371-6.03069-6.03069V0"/><text class="cls-4" transform="translate(21.63104 112.81676)"><tspan x="0" y="0">PDF</tspan></text></g></svg>