<?xml version="1.0" encoding="UTF-8"?><svg id="Layer_2" xmlns="http://www.w3.org/2000/svg" width="84.42966" height="118.60357" viewBox="0 0 84.42966 118.60357"><defs><style>.cls-1{fill:#f07f53;}.cls-1,.cls-2{stroke-width:0px;}.cls-2,.cls-3{fill:#e9ecec;}.cls-3{font-family:Inter-Bold, Inter;font-size:20.26312px;font-variation-settings:'wght' 700, 'slnt' 0;font-weight:700;}</style></defs><g id="Layer_1-2"><path class="cls-2" d="M84.42966,24.12276v86.43989c0,3.33698-2.68969,6.03069-6.03069,6.03069H6.03069c-3.33698,0-6.03069-2.69371-6.03069-6.03069V6.03069C0,2.68969,2.69371,0,6.03069,0h54.27621l24.12276,24.12276Z"/><path class="cls-1" d="M41.80662,28.12999c-1.11008.01762-1.99569.9318-1.97807,2.04188,0,.00017,0,.00034,0,.00051v1.97806h-18.09207c-1.11022,0-2.01023.90001-2.01023,2.01023v28.14322c0,1.11022.90001,2.01023,2.01023,2.01023h9.26716l-3.13596,9.3918c-.35083,1.05471.21978,2.19412,1.27449,2.54495,1.05471.35083,2.19412-.21978,2.54495-1.27448h0l3.55409-10.66226h4.58734c0,.00268,0,.00536,0,.00804v12.05334c0,1.11022.90001,2.01023,2.01023,2.01023s2.01023-.90001,2.01023-2.01023v-12.05334c0-.00268,0-.00536,0-.00804h4.58332l3.55811,10.66226c.35083,1.05471,1.49024,1.62531,2.54496,1.27449,1.05471-.35083,1.62531-1.49025,1.27448-2.54496l-3.13596-9.3918h9.26716c1.11022,0,2.01023-.90001,2.01023-2.01023v-28.14322c0-1.11022-.90001-2.01023-2.01023-2.01023h-18.09207v-1.97806c.01791-1.11008-.86747-2.02449-1.97754-2.0424-.02161-.00035-.04323-.00035-.06485,0ZM23.74671,36.17091h36.18414v24.12276h-9.62096c-.16875-.03816-.34172-.05438-.51462-.04824-.12183.00508-.24294.02122-.36184.04824h-15.19332c-.13861-.03095-.28012-.04712-.42215-.04824-.15547-.00186-.31062.01433-.46235.04824h-9.6089v-24.12276Z"/><path class="cls-1" d="M0,90.46035v20.1023c0,4.45467,3.42324,8.04092,7.67542,8.04092h69.07882c4.25218,0,7.67542-3.58625,7.67542-8.04092v-20.1023H0Z"/><path class="cls-1" d="M84.42966,24.12276h-18.09207c-3.33698,0-6.03069-2.69371-6.03069-6.03069V0"/><text class="cls-3" transform="translate(15.98972 111.61097)"><tspan x="0" y="0">PPTX</tspan></text></g></svg>