<?xml version="1.0" encoding="UTF-8"?><svg id="Layer_2" xmlns="http://www.w3.org/2000/svg" width="355.90623" height="61.66102" viewBox="0 0 355.90623 61.66102"><defs><style>.cls-1{fill:none;stroke:#fff;stroke-linecap:round;stroke-linejoin:round;stroke-width:3.52349px;}.cls-2{fill-rule:evenodd;}.cls-2,.cls-3{fill:#385be6;stroke-width:0px;}</style></defs><g id="Layer_1-2"><path class="cls-2" d="M46.67632,2.983C46.12719.77832,44.63711-.12631,37.26456.01407v.00062L3.65477,2.5399C.94331,2.77839,0,4.58071,0,6.74076v37.47969c0,1.68246.58737,3.12216,2.00444,5.04616l7.90057,10.44996c1.29803,1.68246,2.47823,2.04327,4.95645,1.92347l39.03025-2.40355c3.3001-.23907,4.2458-1.80226,4.2458-4.44434V12.62717c0-1.36547-.41877-2.92648-2.09136-2.92435M56.04615,9.70282l-39.88907,2.20577-.41304.02905c-3.18708.2181-3.90991.26692-5.71997-1.23017l-4.60173-3.72327c-.46771-.48192-.23264-1.08312.94572-1.20297l32.30994-2.40164c3.94208-.21187,7.99462.22411,7.99831-.39659"/><path class="cls-1" d="M31.71137,51.09055l19.37917-1.76174"/><path class="cls-1" d="M38.07373,24.00498c.60991-.65872,1.4626-1.0537,2.3706-1.09809.4496-.02202.89937.04281,1.32324.19062.42405.14781.81393.37578,1.14795.67087.33368.29509.60481.65149.79754,1.04894.19291.39745.30372.8282.32627,1.26758.02237.4392-.04369.87858-.19503,1.29294-.15133.41419-.38459.79543-.68673,1.12152l-19.16512,20.69854-6.37504,1.89264,1.291-6.38702,19.1653-20.69854Z"/><path class="cls-3" d="M84.48998,24.50091c0,1.50136.55689,2.59117,1.67084,3.26927,1.11395.82326,3.4872,1.67084,7.11973,2.54272,3.82616.92016,6.61094,2.17945,8.35454,3.77771,1.79204,1.59825,2.68807,3.89891,2.68807,6.90163,0,3.14824-1.18653,5.69096-3.55978,7.62817-2.3248,1.93739-5.37614,2.90599-9.15384,2.90599-5.47286,0-10.41296-1.93721-14.82049-5.81181l3.77788-4.50425c3.68081,3.14806,7.41024,4.72218,11.18795,4.72218,1.88876,0,3.41443-.41172,4.57683-1.23516,1.1624-.87171,1.7436-1.98566,1.7436-3.34185,0-1.35601-.53275-2.42151-1.59825-3.19651-1.01705-.77499-2.85754-1.47722-5.5213-2.10687-4.60114-1.0655-7.79765-2.32479-9.58969-3.77771-2.08273-1.59825-3.12392-4.04408-3.12392-7.33766,0-3.19651,1.16239-5.69078,3.4872-7.48279,2.32479-1.84046,5.30337-2.76067,8.93573-2.76067,4.89183,0,9.08126,1.42876,12.56828,4.2863l-3.19651,4.50425c-1.0655-.96861-2.49427-1.7436-4.28632-2.3248-1.79205-.62965-3.55978-.94447-5.30337-.94447-1.79205,0-3.24495.38758-4.35891,1.1624-1.0655.72654-1.59825,1.76791-1.59825,3.12392ZM116.63176,51.09055h-5.66665v-27.02549h5.66665v4.86752c.82344-1.6467,2.05841-2.93031,3.70511-3.85047,1.6467-.96861,3.41461-1.45291,5.30337-1.45291,4.31063,0,7.21662,1.76773,8.71799,5.30338,2.66376-3.53564,6.0056-5.30338,10.02554-5.30338,3.0998,0,5.56975.94447,7.41024,2.83324,1.84049,1.88894,2.76065,4.57701,2.76065,8.06403v16.56408h-5.66665v-14.82049c0-4.98855-2.08255-7.48283-6.24785-7.48283-2.0341,0-3.75357.65378-5.15802,1.96152-1.35619,1.25929-2.05843,3.02703-2.10687,5.30337v15.03841h-5.73923v-14.82049c0-2.56686-.46017-4.4558-1.38033-5.66665-.92033-1.21085-2.34912-1.81618-4.28633-1.81618-2.08255,0-3.82615.67809-5.23078,2.03411-1.40447,1.30774-2.10687,3.17237-2.10687,5.59406v14.67514ZM184.44635,51.09055h-5.15839v-3.63254c-2.27617,2.71238-5.27906,4.06839-9.00849,4.06839-2.85738,0-5.20649-.79913-7.04697-2.39738-1.79188-1.6467-2.6879-3.77771-2.6879-6.39319,0-2.61531.9686-4.60114,2.90599-5.95716,1.93722-1.35619,4.60097-2.03429,7.99127-2.03429h7.41094v-1.01705c0-3.58391-2.01015-5.37596-6.03061-5.37596-2.51842,0-5.13372.92016-7.84609,2.76065l-2.54273-3.55978c3.34186-2.61548,7.07129-3.92305,11.18813-3.92305,3.34097,0,5.98182.84757,7.91798,2.54272,1.93791,1.6467,2.90688,4.14098,2.90688,7.48283v17.43579ZM178.77882,38.7402h-6.39247c-4.11667,0-6.17509,1.28343-6.17509,3.85047,0,1.30756.50843,2.32462,1.52566,3.05116,1.01706.6781,2.44584,1.01706,4.28616,1.01706,1.88894,0,3.48772-.50844,4.79493-1.52549,1.30722-1.06568,1.96082-2.44601,1.96082-4.14116v-2.25203ZM198.11218,39.46674v11.6238h-5.66576v-27.02549h5.66576v5.37596c.91964-1.69515,2.15639-3.07547,3.70495-4.14098,1.5979-1.0655,3.26979-1.62239,5.01392-1.67084l.07223,5.73923h-.29069c-2.76065,0-4.8677.89602-6.32113,2.68807-1.45169,1.79205-2.17929,4.26201-2.17929,7.41024ZM219.58431,28.64189v13.73067c0,1.30774.33826,2.34911,1.01653,3.12392.72583.72654,1.69479,1.08982,2.90687,1.08982,1.11343,0,2.27619-.60533,3.4865-1.81618l2.32374,4.06822c-2.03306,1.79205-4.23699,2.68807-6.61006,2.68807-2.46996,0-4.55234-.84757-6.24715-2.54272-1.69655-1.7436-2.54396-3.99563-2.54396-6.75628v-13.58551h-3.41425v-4.57683h3.41425v-8.49997h5.66753v8.49997h7.11919v4.57683h-7.11919ZM261.33586,15.56509h5.95645v35.52546h-6.46559l-20.12262-25.93567v25.93567h-6.03045V15.56509h6.03045l20.63177,26.51696V15.56509ZM288.8261,46.44095c2.46995,0,4.50476-.82326,6.10269-2.46996,1.64723-1.6467,2.46995-3.77788,2.46995-6.39319s-.82273-4.74649-2.46995-6.39319c-1.59792-1.6467-3.63273-2.46996-6.10269-2.46996s-4.50301.82326-6.10091,2.46996c-1.59967,1.6467-2.39775,3.77788-2.39775,6.39319s.79807,4.72217,2.39775,6.32043c1.5979,1.69515,3.63093,2.54272,6.10091,2.54272ZM288.8261,51.5264c-4.06787,0-7.45746-1.33188-10.17053-3.99563-2.71133-2.71221-4.06787-6.02992-4.06787-9.95297s1.35655-7.21645,4.06787-9.88039c2.71307-2.7122,6.10266-4.06822,10.17053-4.06822,4.06962,0,7.45921,1.35601,10.17231,4.06822,2.71133,2.66393,4.06785,5.95733,4.06785,9.88039,0,3.7777-1.35652,7.07111-4.06785,9.88021-2.7131,2.71238-6.10269,4.06839-10.17231,4.06839ZM316.48016,28.64189v13.73067c0,1.30774.33826,2.34911,1.01655,3.12392.72584.72654,1.69478,1.08982,2.90687,1.08982,1.11343,0,2.27619-.60533,3.4865-1.81618l2.32374,4.06822c-2.03306,1.79205-4.23699,2.68807-6.61006,2.68807-2.46998,0-4.55234-.84757-6.24715-2.54272-1.69655-1.7436-2.54396-3.99563-2.54396-6.75628v-13.58551h-3.41426v-4.57683h3.41426v-8.49997h5.66752v8.49997h7.1192v4.57683h-7.1192ZM355.90623,40.04794h-21.21315c.14621,1.93721,1.04117,3.51133,2.68842,4.72217,1.64723,1.21085,3.5587,1.81618,5.73975,1.81618,3.43717,0,6.00578-1.0655,7.70058-3.19651l3.26803,3.55978c-2.90512,3.05116-6.70697,4.57683-11.40552,4.57683-3.87408,0-7.1192-1.28343-9.73539-3.85029-2.61442-2.56704-3.92164-5.95733-3.92164-10.17089,0-4.11684,1.33187-7.45869,3.99564-10.02573,2.66374-2.56686,5.88422-3.85029,9.66139-3.85029s6.92541,1.13809,9.44469,3.41443c2.51931,2.27635,3.7772,5.30337,3.7772,9.08126v3.92305ZM350.24046,35.54369c0-2.17963-.70294-3.89891-2.10704-5.15821-1.35655-1.25929-3.12359-1.88876-5.30286-1.88876s-4.09253.65378-5.73975,1.96152c-1.5979,1.30756-2.39772,3.00271-2.39772,5.08545h15.54738Z"/></g></svg>